<?xml version="1.0" encoding="UTF-8"?>
<svg id="Layer_1" xmlns="http://www.w3.org/2000/svg" version="1.1" viewBox="0 0 210 42">
  <!-- Generator: Adobe Illustrator 29.3.0, SVG Export Plug-In . SVG Version: 2.1.0 Build 146)  -->
  <path d="M77.7,32.6v1.5h-8.8v-13.7h1.8v12.1h7Z"/>
  <path d="M87.7,30.2h-5.9l-1.5,4h-1.9l5.4-13.7h1.9l5.4,13.7h-1.9c-.1,0-1.6-4-1.6-4ZM87.1,28.7l-2.4-6.2-2.4,6.2h4.8Z"/>
  <path d="M102,28.2c.5.5.7,1.3.7,2.1s-.2,1.4-.6,2c-.4.6-1,1-1.7,1.3s-1.6.5-2.6.5h-5v-13.7h4.6c.9,0,1.7.1,2.3.5.7.3,1.2.7,1.6,1.3.4.5.5,1.1.5,1.9s-.2,1.3-.5,1.8-.9.9-1.6,1.1c1,.2,1.7.6,2.3,1.2h0ZM94.6,21.9v4.4h2.8c.8,0,1.4-.2,1.9-.6.5-.4.7-.9.7-1.6s-.3-1.2-.8-1.6c-.5-.4-1.3-.6-2.1-.6h-2.5ZM100,32c.5-.5.8-1,.8-1.7s-.3-1.3-.9-1.8c-.6-.5-1.4-.7-2.4-.7h-2.9v4.9h3.3c.9,0,1.7-.2,2.2-.7Z"/>
  <path d="M107.1,33.6c-1-.6-1.8-1.4-2.3-2.5-.5-1.1-.8-2.3-.8-3.7s.3-2.7.8-3.7,1.3-1.9,2.3-2.5,2.2-.9,3.5-.9,2.5.3,3.5.9,1.8,1.4,2.3,2.5c.5,1.1.8,2.3.8,3.7s-.3,2.7-.8,3.7-1.3,1.9-2.3,2.5-2.2.9-3.5.9-2.5-.3-3.5-.9ZM113.2,32.2c.7-.5,1.3-1.1,1.7-1.9s.6-1.7.6-2.8-.2-2.1-.6-3-1-1.5-1.7-2-1.6-.7-2.5-.7-1.8.2-2.5.7-1.3,1.1-1.7,1.9-.6,1.7-.6,2.8.2,2.1.6,3c.4.9,1,1.5,1.7,2s1.6.7,2.5.7,1.8-.2,2.5-.7Z"/>
  <path d="M130.2,34.2c-.3,0-.5,0-.7,0-.5,0-1,0-1.4-.3-.4-.2-.8-.5-1.1-.9l-3.6-4.2h-2.1v5.2h-1.9v-13.7h4.8c.9,0,1.8.2,2.5.5s1.3.8,1.7,1.5.6,1.3.6,2.2-.3,1.9-.9,2.6-1.5,1.2-2.5,1.4l2.8,3.2c.5.5.9.7,1.3.7h.5v1.5h0ZM121.1,27.4h2.9c.9,0,1.5-.3,2.1-.7s.8-1.1.8-1.9-.3-1.5-.9-2c-.6-.5-1.3-.7-2.3-.7h-2.7v5.4h0Z"/>
  <path d="M140.6,30.2h-5.9l-1.5,4h-1.9l5.4-13.7h1.9l5.4,13.7h-1.9l-1.6-4h0ZM140,28.7l-2.4-6.2-2.4,6.2h4.8Z"/>
  <path d="M153.2,22h-4.5v12.1h-1.8v-12.1h-4.5v-1.5h10.8v1.5h0Z"/>
  <path d="M156.4,33.6c-1-.6-1.8-1.4-2.3-2.5-.5-1.1-.8-2.3-.8-3.7s.3-2.7.8-3.7,1.3-1.9,2.3-2.5,2.2-.9,3.5-.9,2.5.3,3.5.9,1.8,1.4,2.3,2.5c.5,1.1.8,2.3.8,3.7s-.3,2.7-.8,3.7-1.3,1.9-2.3,2.5-2.2.9-3.5.9-2.5-.3-3.5-.9ZM162.5,32.2c.7-.5,1.3-1.1,1.7-1.9s.6-1.7.6-2.8-.2-2.1-.6-3c-.4-.9-1-1.5-1.7-2s-1.6-.7-2.5-.7-1.8.2-2.5.7-1.3,1.1-1.7,1.9-.6,1.7-.6,2.8.2,2.1.6,3c.4.9,1,1.5,1.7,2s1.6.7,2.5.7,1.8-.2,2.5-.7Z"/>
  <path d="M179,34.2c-.3,0-.5,0-.7,0-.5,0-1,0-1.4-.3-.4-.2-.8-.5-1.1-.9l-3.6-4.2h-2.1v5.2h-1.9v-13.7h4.7c.9,0,1.8.2,2.5.5s1.3.8,1.7,1.5.6,1.3.6,2.2-.3,1.9-.9,2.6-1.5,1.2-2.5,1.4l2.8,3.2c.5.5.9.7,1.3.7h.5v1.5h0ZM170,27.4h2.9c.9,0,1.5-.3,2.1-.7s.8-1.1.8-1.9-.3-1.5-.9-2-1.3-.7-2.3-.7h-2.7v5.4h0Z"/>
  <path d="M181.3,20.5h1.8v13.7h-1.8v-13.7Z"/>
  <path d="M195.5,32.6v1.5h-9.6v-13.7h9v1.5h-7.2v4.3h5.6v1.5h-5.6v4.9h7.8Z"/>
  <polygon points="76.3 9.1 71.1 1 68.9 1 68.9 14.6 71.9 14.6 71.9 7.3 75.4 12.6 77.1 12.6 80.6 7.3 80.6 14.6 83.6 14.6 83.6 1 81.4 1 76.3 9.1"/>
  <rect x="157.2" y="1" width="3.3" height="13.7"/>
  <polygon points="147.9 1 144.8 1 144.8 14.6 154.8 14.6 154.8 12 147.9 12 147.9 1"/>
  <rect x="178.8" y="1" width="3.3" height="13.7"/>
  <polygon points="172.8 9.3 165.9 1 163.5 1 163.5 14.6 166.5 14.6 166.5 6.3 173.4 14.6 175.8 14.6 175.8 1 172.8 1 172.8 9.3"/>
  <path d="M91.1,1l-6.2,13.7h3.1l1.1-2.7h6.1l1.1,2.7h3.1l-6.3-13.7h-2.1ZM90.3,10l1.9-4.5,1.9,4.5h-3.7Z"/>
  <path d="M195,10.1c-.7,1.3-2,2.1-3.6,2.1-2.4,0-4-1.7-4-4.4s1.5-4.4,3.9-4.4,3,.9,3.5,2.3l2.8-1.1c-1-2.4-3.4-3.9-6.4-3.9s-7.1,2.9-7.1,7.1,2.9,7.2,7.2,7.2,5.4-1.4,6.4-3.7l-2.8-1.2h0Z"/>
  <polygon points="107.4 1 103.9 6.9 100.4 1 96.7 1 102.2 9.8 102.2 14.6 105.5 14.6 105.5 9.8 111 1 107.4 1"/>
  <path d="M117.6.8c-4.2,0-7.1,2.9-7.1,7.1s2.9,7.1,7.1,7.1,7.1-2.9,7.1-7.1-2.9-7.1-7.1-7.1M117.6,12.3c-2.3,0-3.9-1.7-3.9-4.4s1.5-4.4,3.9-4.4,3.9,1.7,3.9,4.4-1.5,4.4-3.9,4.4"/>
  <path d="M136.5,12.3c-2.4,0-4-1.7-4-4.4s1.5-4.4,3.9-4.4,3,.9,3.5,2.3l2.8-1.1c-1-2.4-3.4-3.9-6.4-3.9s-7.1,2.9-7.1,7.1,3,7.2,7.2,7.2,5.4-1.4,6.4-3.7l-2.8-1.1c-.7,1.3-2,2.1-3.6,2.1"/>
  <path d="M33.8.4v8.6h-7.8V.4H2.5v12.9c0,7.9,3.8,13,11.7,15.5,1-.3,1.9-.7,2.7-1.1v.3c1.1,6.8,5.4,11.2,12.8,13.5,7.4-2.3,11.6-6.8,12.8-13.5v-.3c.9.4,1.8.7,2.7,1.1,7.8-2.5,11.7-7.6,11.7-15.5V.4h-23.2ZM16.7,9.1v15.8c-.7.4-1.6.8-2.5,1.2-6.3-2.6-8.8-6.4-8.8-13.3V4.3c0-.8.5-1.3,1.3-1.3h15.1c.8,0,1.3.5,1.3,1.3v4.8h-6.4ZM19.5,12.9c0-.8.5-1.3,1.3-1.3h2.3v1.3c0,4.6-1.1,7.7-3.7,10.1v-10h0ZM40,26.6c-.7,6-3.8,9.6-10.1,12.1-6.3-2.5-9.4-6.1-10.1-12.1,0,0,0-.1,0-.4,4.2-2.8,6.3-7.1,6.3-12.9v-1.7h7.8v1.7c0,5.8,2.1,10.1,6.3,12.9-.1.3-.2.4-.1.4M40.1,22.9c-2.5-2.3-3.7-5.6-3.7-10.1v-1.3h2.3c.8,0,1.3.5,1.3,1.3v10h0ZM54.3,12.8c0,6.9-2.5,10.6-8.9,13.2-.9-.3-1.7-.7-2.5-1.2v-15.7h-6.4v-4.8c0-.8.5-1.3,1.3-1.3h15.1c.8,0,1.3.5,1.3,1.3v8.5h0Z"/>
  <path d="M198.6,33.5c-1-.7-1.6-1.5-1.9-2.5l1.6-.5c.2.7.7,1.3,1.4,1.8s1.5.7,2.5.7,1.8-.2,2.4-.6c.6-.4.9-.9.9-1.7s-.1-.9-.5-1.2-.7-.5-1.2-.7c-.5-.2-1.1-.4-2-.6-1-.3-1.9-.5-2.5-.8s-1.1-.6-1.6-1.1c-.5-.5-.7-1.1-.7-1.9s.2-1.5.6-2.1c.4-.6,1-1.1,1.7-1.4s1.6-.5,2.6-.5,2.3.3,3.3.8,1.5,1.3,1.9,2.3l-1.6.5c-.3-.7-.7-1.2-1.4-1.5s-1.4-.6-2.3-.6-1.7.2-2.2.6-.9.9-.9,1.5.1.9.5,1.2.7.5,1.2.7,1.1.4,1.9.6c1.1.3,1.9.5,2.5.8s1.2.7,1.7,1.1c.5.5.7,1.2.7,2.1s-.2,1.5-.7,2.1c-.4.6-1.1,1.1-1.8,1.5-.8.3-1.7.5-2.7.5-1.4-.1-2.6-.4-3.6-1.1h0Z"/>
</svg>